<svg width="742" height="171" viewBox="0 0 742 171" fill="none" xmlns="http://www.w3.org/2000/svg">
<path d="M55.9388 63.1858C54.5657 65.1662 48.7563 73.6426 42.9997 81.987C37.2696 90.3314 32.3316 97.6459 32.0412 98.2268C31.6715 98.9926 31.513 99.8112 31.5394 101.132C31.5394 102.241 31.7243 103.376 31.9883 103.957C32.226 104.512 32.8598 105.462 33.3879 106.043C33.9424 106.65 34.9194 107.443 35.5796 107.812C36.5566 108.367 37.1112 108.499 38.7483 108.499C40.3855 108.525 40.9929 108.393 42.234 107.786C43.211 107.337 44.0824 106.65 44.6633 105.937C45.1386 105.33 48.1754 100.973 51.3969 96.2464C54.6185 91.5196 57.5232 87.2946 57.8665 86.8721L58.4738 86.08C65.1546 95.9031 69.1155 101.66 71.5713 105.224C74.0271 108.789 76.1396 111.879 76.2452 112.09C76.3772 112.301 76.5357 112.433 76.5885 112.354C76.6677 112.275 77.9088 110.506 79.3347 108.393C80.7607 106.281 84.8008 100.419 88.26 95.375C91.7457 90.3314 94.6503 86.1856 94.7296 86.212C94.8088 86.212 96.9477 89.2751 99.4827 93.0248C102.018 96.7481 105.979 102.531 108.302 105.885C110.6 109.212 112.58 112.037 112.712 112.143C112.844 112.275 113.478 111.615 114.085 110.691C114.719 109.793 120.423 101.501 126.734 92.2854C133.045 83.0697 138.511 74.9893 138.854 74.3292C139.356 73.3522 139.488 72.7448 139.488 71.0284C139.488 69.1536 139.409 68.7575 138.67 67.4636C138.194 66.5922 137.323 65.6151 136.557 65.0342C135.844 64.4797 134.761 63.9251 134.128 63.7667C133.52 63.6347 132.622 63.5026 132.147 63.5026C131.698 63.5026 130.668 63.6875 129.903 63.8987C128.873 64.1892 128.186 64.6381 127.13 65.6679C126.391 66.4337 123.011 71.0812 119.683 76.0192C116.356 80.9307 113.425 85.1822 113.214 85.4462C112.844 85.8951 112.501 85.4462 108.197 79.1615C105.662 75.4647 101.938 70.025 99.9316 67.0939C97.9247 64.1892 95.9442 61.2581 95.4953 60.5979L94.7031 59.4097C90.7158 65.3511 86.6757 71.2661 83.1636 76.3625C79.6516 81.4853 76.6677 85.6575 76.5357 85.6047C76.3772 85.5782 74.4232 82.8056 72.1258 79.4784C69.8549 76.1512 65.9204 70.3683 63.359 66.6714C60.824 62.9745 58.6851 59.8586 58.5794 59.7529C58.4738 59.6209 57.2855 61.1789 55.9388 63.1858Z" fill="#FFC243"/>
<path d="M162.559 96.5955C166.739 97.1973 170.651 94.2949 170.878 90.0781C171.864 71.6878 166.885 53.3918 156.571 37.9699C144.835 20.421 127.022 7.83464 106.56 2.63441C86.0994 -2.56582 64.4378 -0.0121803 45.747 9.8036C27.0561 19.6194 12.6576 36.0032 5.32415 55.8001C-2.00931 75.5971 -1.75919 97.4072 6.02635 117.031C13.8119 136.654 28.5823 152.704 47.4934 162.088C66.4044 171.473 88.1189 173.529 108.455 167.861C126.327 162.88 142.024 152.243 153.256 137.648C155.832 134.301 154.754 129.55 151.191 127.284V127.284C147.628 125.018 142.933 126.101 140.293 129.396C131.135 140.828 118.582 149.163 104.35 153.13C87.6505 157.784 69.8198 156.096 54.2912 148.39C38.7625 140.684 26.634 127.505 20.2409 111.391C13.8479 95.2775 13.6425 77.3683 19.6643 61.1122C25.6861 44.8561 37.5093 31.4027 52.8571 23.3426C68.205 15.2824 85.9922 13.1855 102.794 17.4557C119.595 21.7258 134.223 32.061 143.86 46.4711C152.073 58.7526 156.166 73.254 155.667 87.8929C155.523 92.1133 158.379 95.9937 162.559 96.5955V96.5955Z" fill="#FFC243"/>
<path d="M272.632 40.656V55.12H248.824V130H230.904V55.12H207.096V40.656H272.632ZM301.067 70.096C303.371 66.3413 306.358 63.3973 310.027 61.264C313.782 59.1307 318.048 58.064 322.827 58.064V76.88H318.091C312.459 76.88 308.192 78.2027 305.291 80.848C302.475 83.4933 301.067 88.1013 301.067 94.672V130H283.147V59.088H301.067V70.096ZM341.425 50.64C338.268 50.64 335.622 49.6587 333.489 47.696C331.441 45.648 330.417 43.1307 330.417 40.144C330.417 37.1573 331.441 34.6827 333.489 32.72C335.622 30.672 338.268 29.648 341.425 29.648C344.582 29.648 347.185 30.672 349.233 32.72C351.366 34.6827 352.433 37.1573 352.433 40.144C352.433 43.1307 351.366 45.648 349.233 47.696C347.185 49.6587 344.582 50.64 341.425 50.64ZM350.257 59.088V130H332.337V59.088H350.257ZM383.322 69.328C385.626 66.0853 388.783 63.3973 392.794 61.264C396.89 59.0453 401.541 57.936 406.746 57.936C412.805 57.936 418.266 59.4293 423.13 62.416C428.079 65.4027 431.962 69.6693 434.778 75.216C437.679 80.6773 439.13 87.0347 439.13 94.288C439.13 101.541 437.679 107.984 434.778 113.616C431.962 119.163 428.079 123.472 423.13 126.544C418.266 129.616 412.805 131.152 406.746 131.152C401.541 131.152 396.933 130.085 392.922 127.952C388.997 125.819 385.797 123.131 383.322 119.888V163.792H365.402V59.088H383.322V69.328ZM420.826 94.288C420.826 90.0213 419.93 86.352 418.138 83.28C416.431 80.1227 414.127 77.7333 411.226 76.112C408.41 74.4907 405.338 73.68 402.01 73.68C398.767 73.68 395.695 74.5333 392.794 76.24C389.978 77.8613 387.674 80.2507 385.882 83.408C384.175 86.5653 383.322 90.2773 383.322 94.544C383.322 98.8107 384.175 102.523 385.882 105.68C387.674 108.837 389.978 111.269 392.794 112.976C395.695 114.597 398.767 115.408 402.01 115.408C405.338 115.408 408.41 114.555 411.226 112.848C414.127 111.141 416.431 108.709 418.138 105.552C419.93 102.395 420.826 98.64 420.826 94.288ZM476.728 131.152C470.925 131.152 465.72 130.128 461.112 128.08C456.504 125.947 452.835 123.088 450.104 119.504C447.459 115.92 446.008 111.952 445.752 107.6H463.8C464.141 110.331 465.464 112.592 467.768 114.384C470.157 116.176 473.101 117.072 476.6 117.072C480.013 117.072 482.659 116.389 484.536 115.024C486.499 113.659 487.48 111.909 487.48 109.776C487.48 107.472 486.285 105.765 483.896 104.656C481.592 103.461 477.88 102.181 472.76 100.816C467.469 99.536 463.117 98.2133 459.704 96.848C456.376 95.4827 453.475 93.392 451 90.576C448.611 87.76 447.416 83.9627 447.416 79.184C447.416 75.2587 448.525 71.6747 450.744 68.432C453.048 65.1893 456.291 62.6293 460.472 60.752C464.739 58.8747 469.731 57.936 475.448 57.936C483.896 57.936 490.637 60.0693 495.672 64.336C500.707 68.5173 503.48 74.192 503.992 81.36H486.84C486.584 78.544 485.389 76.3253 483.256 74.704C481.208 72.9973 478.435 72.144 474.936 72.144C471.693 72.144 469.176 72.7413 467.384 73.936C465.677 75.1307 464.824 76.7947 464.824 78.928C464.824 81.3173 466.019 83.152 468.408 84.432C470.797 85.6267 474.509 86.864 479.544 88.144C484.664 89.424 488.888 90.7467 492.216 92.112C495.544 93.4773 498.403 95.6107 500.792 98.512C503.267 101.328 504.547 105.083 504.632 109.776C504.632 113.872 503.48 117.541 501.176 120.784C498.957 124.027 495.715 126.587 491.448 128.464C487.267 130.256 482.36 131.152 476.728 131.152ZM584.622 59.088L540.718 163.536H521.646L537.006 128.208L508.59 59.088H528.686L546.99 108.624L565.55 59.088H584.622ZM631.018 58.064C639.466 58.064 646.293 60.752 651.498 66.128C656.703 71.4187 659.306 78.8427 659.306 88.4V130H641.386V90.832C641.386 85.2 639.978 80.8907 637.162 77.904C634.346 74.832 630.506 73.296 625.642 73.296C620.693 73.296 616.767 74.832 613.866 77.904C611.05 80.8907 609.642 85.2 609.642 90.832V130H591.722V59.088H609.642V67.92C612.031 64.848 615.061 62.4587 618.73 60.752C622.485 58.96 626.581 58.064 631.018 58.064ZM669.179 94.544C669.179 87.2053 670.672 80.8053 673.659 75.344C676.646 69.7973 680.784 65.5307 686.075 62.544C691.366 59.472 697.424 57.936 704.251 57.936C713.04 57.936 720.294 60.1547 726.011 64.592C731.814 68.944 735.696 75.088 737.659 83.024H718.331C717.307 79.952 715.558 77.5627 713.083 75.856C710.694 74.064 707.707 73.168 704.123 73.168C699.003 73.168 694.95 75.0453 691.963 78.8C688.976 82.4693 687.483 87.7173 687.483 94.544C687.483 101.285 688.976 106.533 691.963 110.288C694.95 113.957 699.003 115.792 704.123 115.792C711.376 115.792 716.112 112.549 718.331 106.064H737.659C735.696 113.744 731.814 119.845 726.011 124.368C720.208 128.891 712.955 131.152 704.251 131.152C697.424 131.152 691.366 129.659 686.075 126.672C680.784 123.6 676.646 119.333 673.659 113.872C670.672 108.325 669.179 101.883 669.179 94.544Z" fill="#050A1D"/>
</svg>
