<svg width="687" height="149" viewBox="0 0 687 149" fill="none" xmlns="http://www.w3.org/2000/svg">
<path d="M46.1182 52.1132C44.9862 53.746 40.1967 60.7343 35.4507 67.6138C30.7265 74.4932 26.6554 80.5236 26.416 81.0026C26.1112 81.6339 25.9806 82.3088 26.0023 83.3973C26.0023 84.3117 26.1547 85.2478 26.3724 85.7268C26.5684 86.184 27.0908 86.9677 27.5263 87.4467C27.9834 87.9474 28.7889 88.6005 29.3332 88.9053C30.1387 89.3624 30.5959 89.4713 31.9457 89.4713C33.2954 89.4931 33.7962 89.3842 34.8194 88.8835C35.6249 88.5134 36.3433 87.9474 36.8222 87.3596C37.2141 86.8588 39.7177 83.2667 42.3737 79.3698C45.0297 75.4729 47.4245 71.9896 47.7075 71.6413L48.2082 70.9882C53.7161 79.0868 56.9817 83.8328 59.0064 86.7718C61.031 89.7108 62.7726 92.2579 62.8597 92.4321C62.9686 92.6063 63.0992 92.7151 63.1427 92.6498C63.2081 92.5845 64.2313 91.1259 65.4069 89.3842C66.5825 87.6426 69.9134 82.8095 72.7653 78.6514C75.639 74.4932 78.0337 71.0753 78.0991 71.097C78.1644 71.097 79.9278 73.6224 82.0177 76.7138C84.1077 79.7834 87.3733 84.5512 89.2891 87.316C91.1831 90.0591 92.8159 92.3885 92.9247 92.4756C93.0336 92.5845 93.5561 92.0402 94.0568 91.2783C94.5793 90.5381 99.2817 83.7021 104.485 76.1042C109.688 68.5063 114.194 61.8446 114.478 61.3003C114.891 60.4948 115 59.9941 115 58.579C115 57.0333 114.935 56.7067 114.325 55.64C113.933 54.9216 113.215 54.1161 112.583 53.6371C111.996 53.1799 111.103 52.7228 110.581 52.5921C110.08 52.4833 109.34 52.3744 108.948 52.3744C108.578 52.3744 107.729 52.5268 107.097 52.701C106.248 52.9405 105.682 53.3106 104.811 54.1596C104.202 54.7909 101.415 58.6225 98.6721 62.6936C95.9291 66.7429 93.5125 70.248 93.3384 70.4657C93.0336 70.8358 92.7506 70.4657 89.202 65.2843C87.112 62.2364 84.0424 57.7517 82.3878 55.3352C80.7333 52.9405 79.1005 50.5239 78.7304 49.9797L78.0773 49C74.7899 53.8984 71.4591 58.7749 68.5636 62.9766C65.6681 67.2001 63.2081 70.6398 63.0992 70.5963C62.9686 70.5745 61.3576 68.2886 59.4635 65.5456C57.5913 62.8025 54.3475 58.0347 52.2357 54.9869C50.1458 51.939 48.3824 49.3701 48.2953 49.283C48.2082 49.1742 47.2285 50.4586 46.1182 52.1132Z" fill="#FFC243"/>
<path d="M141 70.5C141 109.436 109.436 141 70.5 141C31.5639 141 0 109.436 0 70.5C0 31.5639 31.5639 0 70.5 0C109.436 0 141 31.5639 141 70.5ZM12.6096 70.5C12.6096 102.472 38.528 128.39 70.5 128.39C102.472 128.39 128.39 102.472 128.39 70.5C128.39 38.528 102.472 12.6096 70.5 12.6096C38.528 12.6096 12.6096 38.528 12.6096 70.5Z" fill="#FFC243"/>
<path d="M201.696 58.808V93.112C201.696 95.5013 202.251 97.2507 203.36 98.36C204.555 99.384 206.517 99.896 209.248 99.896H217.568V115H206.304C191.2 115 183.648 107.661 183.648 92.984V58.808H175.2V44.088H183.648V26.552H201.696V44.088H217.568V58.808H201.696ZM245.817 55.096C248.121 51.3413 251.108 48.3973 254.777 46.264C258.532 44.1307 262.798 43.064 267.577 43.064V61.88H262.841C257.209 61.88 252.942 63.2027 250.041 65.848C247.225 68.4933 245.817 73.1013 245.817 79.672V115H227.897V44.088H245.817V55.096ZM286.175 35.64C283.018 35.64 280.372 34.6587 278.239 32.696C276.191 30.648 275.167 28.1307 275.167 25.144C275.167 22.1573 276.191 19.6827 278.239 17.72C280.372 15.672 283.018 14.648 286.175 14.648C289.332 14.648 291.935 15.672 293.983 17.72C296.116 19.6827 297.183 22.1573 297.183 25.144C297.183 28.1307 296.116 30.648 293.983 32.696C291.935 34.6587 289.332 35.64 286.175 35.64ZM295.007 44.088V115H277.087V44.088H295.007ZM328.072 54.328C330.376 51.0853 333.533 48.3973 337.544 46.264C341.64 44.0453 346.291 42.936 351.496 42.936C357.555 42.936 363.016 44.4293 367.88 47.416C372.829 50.4027 376.712 54.6693 379.528 60.216C382.429 65.6773 383.88 72.0347 383.88 79.288C383.88 86.5413 382.429 92.984 379.528 98.616C376.712 104.163 372.829 108.472 367.88 111.544C363.016 114.616 357.555 116.152 351.496 116.152C346.291 116.152 341.683 115.085 337.672 112.952C333.747 110.819 330.547 108.131 328.072 104.888V148.792H310.152V44.088H328.072V54.328ZM365.576 79.288C365.576 75.0213 364.68 71.352 362.888 68.28C361.181 65.1227 358.877 62.7333 355.976 61.112C353.16 59.4907 350.088 58.68 346.76 58.68C343.517 58.68 340.445 59.5333 337.544 61.24C334.728 62.8613 332.424 65.2507 330.632 68.408C328.925 71.5653 328.072 75.2773 328.072 79.544C328.072 83.8107 328.925 87.5227 330.632 90.68C332.424 93.8373 334.728 96.2693 337.544 97.976C340.445 99.5973 343.517 100.408 346.76 100.408C350.088 100.408 353.16 99.5547 355.976 97.848C358.877 96.1413 361.181 93.7093 362.888 90.552C364.68 87.3947 365.576 83.64 365.576 79.288ZM421.478 116.152C415.675 116.152 410.47 115.128 405.862 113.08C401.254 110.947 397.585 108.088 394.854 104.504C392.209 100.92 390.758 96.952 390.502 92.6H408.55C408.891 95.3307 410.214 97.592 412.518 99.384C414.907 101.176 417.851 102.072 421.35 102.072C424.763 102.072 427.409 101.389 429.286 100.024C431.249 98.6587 432.23 96.9093 432.23 94.776C432.23 92.472 431.035 90.7653 428.646 89.656C426.342 88.4613 422.63 87.1813 417.51 85.816C412.219 84.536 407.867 83.2133 404.454 81.848C401.126 80.4827 398.225 78.392 395.75 75.576C393.361 72.76 392.166 68.9627 392.166 64.184C392.166 60.2587 393.275 56.6747 395.494 53.432C397.798 50.1893 401.041 47.6293 405.222 45.752C409.489 43.8747 414.481 42.936 420.198 42.936C428.646 42.936 435.387 45.0693 440.422 49.336C445.457 53.5173 448.23 59.192 448.742 66.36H431.59C431.334 63.544 430.139 61.3253 428.006 59.704C425.958 57.9973 423.185 57.144 419.686 57.144C416.443 57.144 413.926 57.7413 412.134 58.936C410.427 60.1307 409.574 61.7947 409.574 63.928C409.574 66.3173 410.769 68.152 413.158 69.432C415.547 70.6267 419.259 71.864 424.294 73.144C429.414 74.424 433.638 75.7467 436.966 77.112C440.294 78.4773 443.153 80.6107 445.542 83.512C448.017 86.328 449.297 90.0827 449.382 94.776C449.382 98.872 448.23 102.541 445.926 105.784C443.707 109.027 440.465 111.587 436.198 113.464C432.017 115.256 427.11 116.152 421.478 116.152ZM529.372 44.088L485.468 148.536H466.396L481.756 113.208L453.34 44.088H473.436L491.74 93.624L510.3 44.088H529.372ZM575.768 43.064C584.216 43.064 591.043 45.752 596.248 51.128C601.453 56.4187 604.056 63.8427 604.056 73.4V115H586.136V75.832C586.136 70.2 584.728 65.8907 581.912 62.904C579.096 59.832 575.256 58.296 570.392 58.296C565.443 58.296 561.517 59.832 558.616 62.904C555.8 65.8907 554.392 70.2 554.392 75.832V115H536.472V44.088H554.392V52.92C556.781 49.848 559.811 47.4587 563.48 45.752C567.235 43.96 571.331 43.064 575.768 43.064ZM613.929 79.544C613.929 72.2053 615.422 65.8053 618.409 60.344C621.396 54.7973 625.534 50.5307 630.825 47.544C636.116 44.472 642.174 42.936 649.001 42.936C657.79 42.936 665.044 45.1547 670.761 49.592C676.564 53.944 680.446 60.088 682.409 68.024H663.081C662.057 64.952 660.308 62.5627 657.833 60.856C655.444 59.064 652.457 58.168 648.873 58.168C643.753 58.168 639.7 60.0453 636.713 63.8C633.726 67.4693 632.233 72.7173 632.233 79.544C632.233 86.2853 633.726 91.5333 636.713 95.288C639.7 98.9573 643.753 100.792 648.873 100.792C656.126 100.792 660.862 97.5493 663.081 91.064H682.409C680.446 98.744 676.564 104.845 670.761 109.368C664.958 113.891 657.705 116.152 649.001 116.152C642.174 116.152 636.116 114.659 630.825 111.672C625.534 108.6 621.396 104.333 618.409 98.872C615.422 93.3253 613.929 86.8827 613.929 79.544Z" fill="#050A1D"/>
</svg>
