<svg width="1985" height="512" viewBox="0 0 1985 512" fill="none" xmlns="http://www.w3.org/2000/svg">
<path fill-rule="evenodd" clip-rule="evenodd" d="M515.665 46.5787C519.985 46.9423 520.193 47.0303 522.07 49.6391C523.946 52.248 524.044 52.6613 523.25 56.3492C522.778 58.522 521.638 61.4355 520.605 62.8124C519.643 64.1965 517.356 67.6009 515.577 70.3833C513.726 73.1586 511.479 76.8362 510.471 78.6192C509.471 80.3357 507.304 83.954 505.548 86.5369C503.865 89.1271 501.919 92.0947 501.284 93.1749C500.656 94.1887 497.798 98.747 495.011 103.312C492.232 107.811 489.191 112.688 488.301 114.079C487.412 115.47 484.538 120.162 481.99 124.549C479.442 128.937 476.64 133.635 475.75 135.026C474.789 136.41 473.542 138.371 472.979 139.459C472.352 140.473 470.058 144.549 467.868 148.367C465.677 152.185 463.255 156.114 462.564 157.054C461.865 158.06 461.23 159.141 461.191 159.473C461.152 159.806 458.874 163.749 456.103 168.182C453.324 172.681 450.283 177.557 449.298 179.141C448.314 180.724 446.979 182.811 446.344 183.891C445.717 184.905 444.375 187.058 443.319 188.635C442.334 190.218 441.437 191.676 441.406 191.942C441.367 192.275 439.279 195.833 436.77 199.888C434.253 204.01 431.474 208.509 430.585 209.9C429.696 211.291 427.981 214.148 426.718 216.242C425.384 218.328 423.114 222.205 421.574 224.81C420.034 227.414 418.232 230.396 417.525 231.469C416.898 232.483 415.556 234.636 414.499 236.213C413.515 237.796 412.618 239.254 412.586 239.52C412.548 239.853 411.548 241.569 410.396 243.338C409.236 245.173 406.99 248.851 405.378 251.448C403.838 254.052 402.21 256.783 401.766 257.478C401.321 258.174 399.249 261.6 397.241 265.099C395.161 268.592 393.161 272.025 392.716 272.72C392.271 273.416 390.914 275.702 389.651 277.796C388.389 279.89 385.301 285.166 382.753 289.553C380.206 293.941 377.3 298.898 376.221 300.674C375.22 302.391 373.609 304.988 372.719 306.379C371.83 307.77 371.004 309.235 370.966 309.568C370.927 309.9 370.189 311.239 369.323 312.431C368.385 313.616 367.012 316.035 366.148 317.832C365.291 319.563 363.751 322.168 362.79 323.552C361.828 324.936 360.995 326.467 360.949 326.866C360.894 327.331 360.324 328.485 359.632 329.425C358.933 330.432 357.321 333.029 356.036 335.323C354.678 337.609 352.707 340.171 351.448 340.987C350.262 341.81 348.086 343.006 346.635 343.601C345.185 344.197 342.656 344.684 341.044 344.793C339.439 344.835 337.37 344.494 336.411 343.994C335.444 343.562 330.947 340.355 326.329 336.935C321.712 333.514 316.902 329.873 315.63 328.939C314.357 328.005 308.483 323.517 302.601 319.096C296.727 314.609 288.772 308.636 284.899 305.693C281.018 302.817 275.464 298.698 272.519 296.521C269.567 294.41 263.284 289.68 258.475 286.039C253.737 282.405 248.76 278.948 247.593 278.361C245.538 277.282 245.027 277.298 242.133 278.422C240.307 279.114 238.507 280.213 237.99 280.901C237.466 281.656 236.324 288.942 233.297 314.875L234.892 316.784C236.102 318.25 237.198 318.83 239.354 319.045C241.438 319.253 243.161 318.819 245.711 317.526C247.647 316.508 250.771 314.667 252.738 313.383C254.706 312.1 257.407 310.755 258.755 310.418C260.039 310.008 261.859 309.988 262.77 310.281C263.601 310.633 266.521 312.404 269.209 314.286C271.826 316.162 273.996 318.127 273.949 318.526C273.895 318.991 269.461 322.72 264.11 326.828C258.688 330.929 245.43 341.11 234.641 349.452C223.852 357.793 212.475 366.816 209.331 369.463C206.186 372.109 191.655 383.239 177.003 394.155C162.423 405.079 147.833 415.463 144.646 417.231C141.466 418.932 137.609 420.834 136.15 421.496C134.699 422.091 131.492 422.781 129.066 423.01C125.46 423.39 123.807 423.225 120.075 422.18C117.542 421.457 114.945 420.66 114.314 420.462C113.611 420.257 113.075 419.868 113.113 419.535C113.144 419.269 114.96 418.038 117.215 416.783C119.47 415.527 141.561 399.433 211.294 347.661L216.598 305.339C220.424 275.046 222.156 262.707 222.911 261.84C223.428 261.152 226.867 258.468 230.515 255.872C234.162 253.276 242.063 247.875 248.061 243.831C254.13 239.795 262.82 233.867 267.415 230.626C272.082 227.391 281.583 220.737 288.616 215.923C295.585 211.034 302.689 206.227 304.338 205.18C306.067 204.075 310.256 201.196 313.745 198.719C317.233 196.241 324.034 191.538 328.845 188.318C333.656 185.098 338.937 181.588 340.666 180.483C342.322 179.37 347.285 176.098 351.626 173.167C355.959 170.303 363.795 164.828 369.036 161.046C374.268 157.33 385.673 149.318 394.29 143.384C402.987 137.389 413.899 129.867 418.494 126.626C423.089 123.384 431.157 117.798 436.438 114.288C441.719 110.779 448.02 106.631 450.457 105.058C453.516 103.143 454.996 101.676 455.462 100.176C455.881 99.0738 456.091 97.2784 455.928 96.1858C455.788 94.8937 454.954 93.9361 453.307 93.0992C451.46 92.1077 450.461 91.9408 448.882 92.3888C447.686 92.6731 445.095 93.6928 442.943 94.6891C440.863 95.6925 435.634 98.1309 431.402 100.131C427.178 102.064 420.49 105.164 416.569 106.993C412.655 108.755 407.275 111.246 404.669 112.398C402.054 113.617 397.136 115.885 393.757 117.432C390.37 119.045 381.515 123.274 374.119 126.842C366.723 130.409 359.789 133.754 358.713 134.252C357.637 134.75 355.223 136.124 353.278 137.208C351.398 138.366 347.988 140.179 345.828 141.241C343.668 142.304 339.723 144.332 337.014 145.744C334.376 147.163 330.033 149.487 327.396 150.906C324.83 152.332 319.953 154.873 316.63 156.559C313.235 158.239 309.601 160.096 308.438 160.72C307.274 161.344 303.879 163.024 300.946 164.48C298.014 165.937 294.228 167.846 292.523 168.753C290.817 169.659 287.176 171.583 284.394 172.987C281.613 174.392 276.043 177.267 272.026 179.288C268.01 181.309 262.989 183.836 260.829 184.898C258.741 185.968 251.625 189.631 245.058 192.945C238.563 196.266 230.761 200.197 227.813 201.787C224.8 203.302 219.525 206.14 216.035 208.012C212.617 209.891 208.895 211.874 207.811 212.438C206.735 212.937 203.787 214.526 201.221 215.952C198.663 217.311 193.013 220.246 180.74 226.354L175.566 225.838C172.691 225.552 168.8 224.625 166.858 223.826C164.98 223.101 162.085 221.736 160.51 220.906C158.87 220.003 156.992 219.277 156.345 219.213C155.627 219.141 153.9 218.363 152.548 217.488C151.124 216.606 149.469 215.836 148.894 215.779C148.319 215.721 144.275 214.242 140.046 212.475C135.746 210.7 131.173 208.764 130.013 208.111C128.782 207.45 127.319 206.9 126.888 206.857C126.385 206.807 123.939 205.958 121.445 204.902C118.951 203.846 116.049 202.547 114.882 201.96C113.786 201.38 109.829 199.774 106.209 198.404C102.588 197.034 98.4387 195.208 97.079 194.399C95.6473 193.584 94.07 192.148 93.5959 191.227C93.1141 190.371 92.8517 188.26 93.0613 186.464C93.3485 184.004 93.9116 182.917 95.6868 181.412C96.9841 180.263 100.818 178.56 105.427 177.069C109.574 175.801 119.334 172.536 127.196 169.957C134.987 167.37 141.486 165.26 141.702 165.282C141.917 165.303 145.011 164.334 148.704 163.222C152.332 162.037 160.194 159.457 166.239 157.504C172.291 155.484 179.914 153.083 183.232 152.068C186.541 151.12 189.635 150.151 190.026 149.92C190.496 149.631 195.256 148.088 200.615 146.402C206.046 144.724 214.196 142.173 218.733 140.675C223.342 139.184 233.996 135.739 242.536 132.958C251.076 130.177 265.214 125.533 273.906 122.7C282.605 119.8 289.854 117.496 289.998 117.511C290.07 117.518 293.77 116.34 298.299 114.908C302.757 113.469 315.372 109.413 326.4 105.871C337.429 102.329 348.608 98.7351 351.32 97.9292C354.039 97.0568 364.087 93.8208 373.608 90.7342C383.201 87.6547 395.146 83.7335 400.289 82.0266C405.353 80.3789 409.659 78.9921 409.874 79.0136C410.09 79.0351 413.407 78.0205 417.259 76.7901C421.039 75.5526 429.491 72.8976 435.911 70.847C442.33 68.7964 453.438 65.1953 460.471 62.8696C467.576 60.551 476.044 57.763 479.37 56.682C482.695 55.6009 490.701 53.0359 497.128 50.9188C503.555 48.8017 509.376 46.8933 509.99 46.6181C510.604 46.343 513.15 46.3279 515.665 46.5787ZM130.285 275.542C132.274 275.942 135.407 277.129 137.239 278.253C139.151 279.318 141.359 280.951 142.272 281.85C143.177 282.814 144.613 284.841 145.377 286.397C146.75 288.956 146.785 289.901 145.14 303.998L141.815 307.568C139.484 310.094 137.35 311.563 134.535 312.628C132.327 313.484 128.753 314.203 126.717 314.202C124.602 314.26 120.745 313.674 113.33 311.791L99.3135 321.627C91.6204 327.116 80.3595 335.142 63.3574 347.505L62.6433 353.623C62.0922 358.344 61.4767 360.503 60.1348 362.656C59.1502 364.239 56.8196 366.765 54.9726 368.263C53.0537 369.753 50.1617 371.483 48.4952 372.056C46.3743 372.787 43.4374 373.032 38.9505 372.854C33.0263 372.532 32.1075 372.306 28.341 370.316C26.0858 369.082 23.2769 366.985 22.1152 365.726C20.8895 364.393 19.3081 361.746 18.5115 359.85C17.2641 356.833 17.1319 355.475 17.7296 350.355C18.3272 345.234 18.77 343.933 20.78 341.039C22.0035 339.278 24.1029 336.863 25.3925 335.781C26.6025 334.758 29.8461 333.131 32.4856 332.318C36.4887 331.035 38.1805 330.868 42.3411 331.35C45.144 331.63 48.7782 332.261 53.7081 333.627L60.0009 329.546C63.4658 327.268 71.2949 321.86 77.4031 317.491C83.5114 313.122 90.7908 308.063 93.6264 306.193C96.4621 304.323 100.03 301.787 101.558 300.526C104.13 298.428 104.495 297.792 105.524 292.715C106.168 289.685 107.306 286.166 108.044 284.827C108.846 283.561 110.683 281.525 112.132 280.324C113.509 279.116 115.939 277.609 117.39 277.014C118.849 276.352 121.552 275.613 123.396 275.393C125.247 275.107 128.368 275.149 130.285 275.542ZM184.43 308.724L184.594 312.305C184.728 314.27 184.659 317.357 184.441 319.219C184.304 321.022 183.667 323.985 183.09 325.811C182.521 327.571 180.696 330.752 179.002 332.803C176.959 335.358 169.746 341.096 156.224 351.049C145.402 359.051 121.162 376.747 102.336 390.409C83.5819 404.078 64.3579 418.036 51.0188 427.671L50.1823 432.969C49.6815 436.014 48.7107 439.347 47.8135 440.805C46.924 442.196 45.1917 444.58 43.7759 446.12C42.4319 447.668 39.5652 449.804 37.3336 450.859C33.2529 452.807 33.2529 452.807 24.988 451.983C16.795 451.166 16.7232 451.158 12.6905 448.335C10.4741 446.768 7.92737 444.294 7.0201 442.724C6.10508 441.22 5.03453 438.557 4.58177 436.83C4.20087 435.11 4.00626 431.795 4.14195 429.387C4.43288 425.648 4.93971 424.421 7.40222 420.765C9.43552 417.671 11.3932 415.849 14.3648 414.06C17.1053 412.382 19.7604 411.436 22.4894 411.103C25.0747 410.755 28.332 410.878 31.5351 411.467C34.3146 411.946 37.2147 412.639 38.1257 412.931C39.3883 413.326 41.9695 411.767 52.6089 404.083C59.6805 398.936 71.1881 390.666 78.1722 385.645C85.1564 380.623 102.326 368.074 116.317 357.832C130.317 347.523 146.052 336.042 151.292 332.26C156.532 328.477 162.41 324.22 164.393 322.803C166.368 321.453 171.68 317.677 176.195 314.495L184.43 308.724ZM238.149 384.176C240.816 384.375 243.629 385.193 246.251 386.397C248.386 387.417 251.146 389.307 252.387 390.507C253.549 391.766 255.169 394.08 255.861 395.629C256.553 397.178 257.408 399.82 257.717 401.532C258.018 403.311 257.884 406.325 257.405 408.564C256.933 410.737 256.096 413.546 255.517 414.767C255.011 415.994 252.832 418.468 250.658 420.269C248.079 422.434 245.426 423.985 242.643 424.784C239.628 425.694 237.354 425.871 234.199 425.489C231.828 425.253 228.625 424.664 227.067 424.307C224.31 423.629 224.159 423.681 216.322 429.155C211.966 432.219 207.704 435.09 206.78 435.536C205.855 435.982 199.683 440.277 180.714 453.925L179.57 460.605C178.646 466.029 177.982 467.981 175.972 470.875C174.638 472.961 172.331 475.288 170.69 476.267C169.048 477.247 166.465 478.201 164.989 478.39C163.433 478.638 161.695 479.205 161.058 479.679C160.261 480.273 158.498 480.433 155.911 480.175C153.683 479.953 151.781 479.427 151.604 479.073C151.435 478.652 149.868 477.756 148.061 477.038C146.262 476.253 143.879 474.872 142.758 473.885C141.701 472.973 139.904 470.305 138.795 467.974C136.994 464.095 136.864 463.342 137.436 457.815C137.977 452.555 138.325 451.446 140.391 448.692C141.615 446.931 143.763 444.723 145.037 443.774C146.319 442.758 149.021 441.413 151.07 440.676C154.403 439.528 155.648 439.451 170.812 440.963L175.877 437.432C178.721 435.496 184.798 431.393 189.513 428.365C194.157 425.33 200.705 420.938 204.033 418.579C207.362 416.221 210.827 413.943 211.831 413.437C212.836 412.932 213.607 411.933 213.723 410.935C213.832 410.004 213.715 408.513 213.393 407.539C213.085 406.432 213.309 403.898 214.048 400.675C215.033 396.603 215.889 394.872 218.369 391.688C220.659 388.89 222.498 387.459 225.105 386.306C227.09 385.495 229.881 384.63 231.365 384.374C232.784 384.045 235.842 384.013 238.149 384.176Z" fill="#FFAB00"/>
<path d="M604.421 338.624H520.721L500.021 378.524H455.921L568.421 168.824H617.321L655.421 378.524H611.021L604.421 338.624ZM599.021 305.924L584.021 217.124L537.821 305.924H599.021ZM762.768 169.124L725.868 378.524H683.568L720.768 169.124H762.768ZM825.264 327.224C825.064 328.424 824.964 330.024 824.964 332.024C824.964 336.024 826.064 338.924 828.264 340.724C830.664 342.324 834.564 343.124 839.964 343.124H859.764L853.464 378.524H826.764C796.764 378.524 781.764 366.024 781.764 341.024C781.764 336.224 782.164 331.524 782.964 326.924L797.064 246.824H777.264L783.264 212.324H803.364L810.564 171.224H852.864L845.664 212.324H882.564L876.564 246.824H839.364L825.264 327.224ZM937.672 192.524C931.072 192.524 925.772 190.624 921.772 186.824C917.772 183.024 915.772 178.224 915.772 172.424C915.772 164.424 918.772 157.624 924.772 152.024C930.972 146.224 938.172 143.324 946.372 143.324C952.772 143.324 957.972 145.224 961.972 149.024C965.972 152.824 967.972 157.624 967.972 163.424C967.972 171.424 964.972 178.324 958.972 184.124C952.972 189.724 945.872 192.524 937.672 192.524ZM955.072 212.324L925.672 378.524H883.372L912.772 212.324H955.072ZM1088.67 209.924C1105.87 209.924 1119.37 214.624 1129.17 224.024C1139.17 233.224 1144.17 246.424 1144.17 263.624C1144.17 270.024 1143.67 275.824 1142.67 281.024L1125.27 378.524H1083.57L1099.77 286.724C1100.37 283.124 1100.67 279.624 1100.67 276.224C1100.67 266.224 1097.97 258.624 1092.57 253.424C1087.37 248.224 1079.87 245.624 1070.07 245.624C1058.87 245.624 1049.27 249.024 1041.27 255.824C1033.47 262.424 1028.27 272.024 1025.67 284.624L1009.17 378.524H966.868L996.268 212.324H1038.57L1034.97 232.724C1041.77 225.724 1049.87 220.224 1059.27 216.224C1068.67 212.024 1078.47 209.924 1088.67 209.924ZM1267.81 209.624C1289.01 209.624 1305.81 215.524 1318.21 227.324C1330.61 238.924 1336.81 254.624 1336.81 274.424C1336.81 280.824 1336.31 286.524 1335.31 291.524C1334.11 297.524 1332.81 302.724 1331.41 307.124H1209.91C1209.71 308.524 1209.61 310.524 1209.61 313.124C1209.61 323.524 1212.61 331.724 1218.61 337.724C1224.81 343.524 1232.91 346.424 1242.91 346.424C1251.31 346.424 1258.51 344.624 1264.51 341.024C1270.71 337.224 1275.71 332.324 1279.51 326.324H1324.81C1317.41 342.324 1305.91 355.524 1290.31 365.924C1274.91 376.124 1257.41 381.224 1237.81 381.224C1216.61 381.224 1199.61 375.224 1186.81 363.224C1174.01 351.224 1167.61 334.924 1167.61 314.324C1167.61 308.324 1168.21 302.024 1169.41 295.424C1172.41 278.224 1178.51 263.124 1187.71 250.124C1197.11 237.124 1208.71 227.124 1222.51 220.124C1236.31 213.124 1251.41 209.624 1267.81 209.624ZM1293.61 281.624C1294.01 278.424 1294.21 276.124 1294.21 274.724C1294.21 265.124 1291.11 257.624 1284.91 252.224C1278.71 246.824 1270.61 244.124 1260.61 244.124C1250.01 244.124 1240.51 247.524 1232.11 254.324C1223.71 260.924 1217.81 270.024 1214.41 281.624H1293.61ZM1416.96 241.724C1424.16 231.724 1432.56 223.924 1442.16 218.324C1451.76 212.724 1462.16 209.924 1473.36 209.924L1465.56 254.024H1454.46C1442.06 254.024 1432.06 256.724 1424.46 262.124C1417.06 267.524 1411.66 276.724 1408.26 289.724L1392.66 378.524H1350.36L1379.76 212.324H1422.06L1416.96 241.724ZM1475.85 294.824C1478.85 278.024 1484.75 263.124 1493.55 250.124C1502.55 237.124 1513.45 227.124 1526.25 220.124C1539.05 213.124 1552.55 209.624 1566.75 209.624C1579.15 209.624 1589.55 212.124 1597.95 217.124C1606.55 222.124 1612.85 228.424 1616.85 236.024L1621.05 212.324H1663.35L1633.95 378.524H1591.65L1596.15 354.224C1589.55 362.024 1580.95 368.524 1570.35 373.724C1559.95 378.724 1548.55 381.224 1536.15 381.224C1523.95 381.224 1513.15 378.524 1503.75 373.124C1494.35 367.524 1487.05 359.724 1481.85 349.724C1476.65 339.524 1474.05 327.724 1474.05 314.324C1474.05 308.124 1474.65 301.624 1475.85 294.824ZM1606.35 295.424C1607.15 290.224 1607.55 286.424 1607.55 284.024C1607.55 272.224 1604.05 263.024 1597.05 256.424C1590.25 249.824 1581.65 246.524 1571.25 246.524C1563.45 246.524 1555.85 248.424 1548.45 252.224C1541.25 256.024 1534.95 261.624 1529.55 269.024C1524.15 276.224 1520.55 284.824 1518.75 294.824C1518.15 298.624 1517.85 302.224 1517.85 305.624C1517.85 317.624 1521.25 327.124 1528.05 334.124C1534.85 340.924 1543.45 344.324 1553.85 344.324C1561.65 344.324 1569.25 342.424 1576.65 338.624C1584.05 334.624 1590.35 328.924 1595.55 321.524C1600.95 314.124 1604.55 305.424 1606.35 295.424ZM1741.57 241.724C1748.77 231.724 1757.17 223.924 1766.77 218.324C1776.37 212.724 1786.77 209.924 1797.97 209.924L1790.17 254.024H1779.07C1766.67 254.024 1756.67 256.724 1749.07 262.124C1741.67 267.524 1736.27 276.724 1732.87 289.724L1717.27 378.524H1674.97L1704.37 212.324H1746.67L1741.57 241.724ZM1853.56 212.324L1875.76 328.424L1940.26 212.324H1984.96L1838.86 457.124H1794.16L1844.56 374.324L1806.46 212.324H1853.56Z" fill="#FFAB00"/>
</svg>
