<svg width="546" height="511" viewBox="0 0 546 511" fill="none" xmlns="http://www.w3.org/2000/svg">
<circle cx="271.5" cy="255.5" r="254.5" fill="none"/>
<g filter="url(#filter0_d_5_11)">
<path fill-rule="evenodd" clip-rule="evenodd" d="M524.665 46.0387C528.985 46.4022 529.193 46.4902 531.069 49.0991C532.946 51.7079 533.043 52.1212 532.249 55.8092C531.778 57.982 530.638 60.8955 529.604 62.2724C528.643 63.6564 526.355 67.0608 524.577 69.8433C522.726 72.6186 520.479 76.2961 519.471 78.0791C518.471 79.7957 516.304 83.4139 514.548 85.9969C512.864 88.587 510.918 91.5546 510.283 92.6349C509.656 93.6486 506.797 98.2069 504.011 102.772C501.232 107.271 498.19 112.148 497.301 113.539C496.412 114.93 493.537 119.622 490.989 124.009C488.442 128.397 485.639 133.095 484.75 134.486C483.788 135.87 482.542 137.831 481.979 138.919C481.351 139.933 479.058 144.009 476.867 147.827C474.677 151.645 472.255 155.574 471.564 156.514C470.865 157.52 470.229 158.601 470.191 158.933C470.152 159.266 467.874 163.209 465.103 167.642C462.324 172.141 459.282 177.017 458.298 178.601C457.313 180.184 455.979 182.271 455.344 183.351C454.717 184.365 453.375 186.518 452.318 188.095C451.334 189.678 450.437 191.136 450.406 191.402C450.367 191.735 448.279 195.293 445.77 199.348C443.253 203.47 440.474 207.969 439.585 209.36C438.695 210.751 436.98 213.608 435.718 215.702C434.384 217.788 432.114 221.665 430.574 224.27C429.034 226.874 427.232 229.856 426.525 230.929C425.897 231.943 424.556 234.096 423.499 235.673C422.514 237.256 421.617 238.714 421.586 238.98C421.547 239.313 420.547 241.029 419.396 242.798C418.236 244.633 415.989 248.311 414.377 250.908C412.837 253.512 411.21 256.243 410.765 256.938C410.321 257.634 408.249 261.06 406.24 264.559C404.161 268.052 402.16 271.485 401.716 272.18C401.271 272.876 399.913 275.162 398.651 277.256C397.389 279.35 394.301 284.626 391.753 289.013C389.205 293.401 386.3 298.358 385.22 300.134C384.22 301.85 382.608 304.448 381.719 305.839C380.829 307.23 380.004 308.695 379.965 309.028C379.927 309.36 379.189 310.699 378.322 311.891C377.384 313.075 376.011 315.495 375.147 317.292C374.291 319.023 372.751 321.628 371.79 323.012C370.828 324.396 369.995 325.927 369.949 326.326C369.894 326.791 369.323 327.945 368.632 328.885C367.933 329.892 366.321 332.489 365.035 334.783C363.678 337.069 361.707 339.631 360.448 340.447C359.261 341.27 357.086 342.466 355.635 343.061C354.184 343.657 351.655 344.144 350.043 344.253C348.439 344.294 346.37 343.954 345.411 343.454C344.443 343.022 339.946 339.815 335.329 336.395C330.712 332.974 325.902 329.333 324.63 328.399C323.357 327.465 317.483 322.977 311.601 318.556C305.727 314.069 297.772 308.096 293.899 305.153C290.017 302.277 284.464 298.158 281.519 295.981C278.566 293.87 272.284 289.14 267.474 285.499C262.737 281.865 257.76 278.408 256.592 277.821C254.537 276.742 254.026 276.758 251.132 277.882C249.307 278.574 247.506 279.673 246.99 280.361C246.465 281.116 245.324 288.402 242.297 314.335L243.892 316.243C245.102 317.71 246.198 318.29 248.354 318.505C250.438 318.713 252.161 318.279 254.711 316.986C256.647 315.968 259.77 314.127 261.738 312.843C263.705 311.56 266.407 310.215 267.755 309.878C269.039 309.468 270.859 309.448 271.77 309.741C272.601 310.092 275.521 311.864 278.209 313.746C280.826 315.622 282.996 317.587 282.949 317.986C282.895 318.451 278.461 322.18 273.11 326.288C267.687 330.389 254.43 340.57 243.641 348.911C232.852 357.253 221.475 366.276 218.33 368.923C215.186 371.569 200.654 382.699 186.002 393.615C171.422 404.539 156.832 414.923 153.645 416.691C150.466 418.392 146.608 420.294 145.15 420.956C143.699 421.551 140.492 422.241 138.066 422.47C134.459 422.85 132.806 422.685 129.075 421.64C126.542 420.917 123.945 420.12 123.314 419.922C122.61 419.717 122.074 419.328 122.113 418.995C122.144 418.729 123.96 417.498 126.215 416.242C128.47 414.987 150.561 398.893 220.294 347.121L225.597 304.799C229.424 274.506 231.155 262.167 231.911 261.3C232.427 260.612 235.867 257.928 239.515 255.332C243.162 252.736 251.063 247.335 257.061 243.291C263.13 239.255 271.819 233.327 276.415 230.086C281.082 226.851 290.583 220.197 297.616 215.383C304.585 210.494 311.689 205.687 313.338 204.64C315.067 203.535 319.256 200.656 322.744 198.179C326.233 195.701 333.034 190.998 337.845 187.778C342.656 184.558 347.937 181.048 349.665 179.943C351.322 178.83 356.284 175.558 360.625 172.627C364.958 169.763 372.795 164.288 378.035 160.506C383.268 156.79 394.672 148.778 403.29 142.844C411.987 136.849 422.898 129.327 427.494 126.086C432.089 122.844 440.157 117.258 445.438 113.748C450.719 110.239 457.019 106.091 459.457 104.518C462.516 102.603 463.996 101.136 464.462 99.6355C464.881 98.5338 465.091 96.7384 464.927 95.6458C464.787 94.3537 463.954 93.3961 462.307 92.5591C460.46 91.5676 459.461 91.4008 457.882 91.8487C456.686 92.133 454.095 93.1528 451.943 94.149C449.862 95.1524 444.634 97.5908 440.402 99.5905C436.177 101.524 429.49 104.624 425.569 106.453C421.655 108.215 416.275 110.706 413.668 111.858C411.054 113.077 406.136 115.345 402.757 116.892C399.369 118.505 390.515 122.734 383.118 126.302C375.722 129.869 368.788 133.214 367.712 133.712C366.636 134.21 364.222 135.584 362.278 136.668C360.398 137.826 356.987 139.638 354.828 140.701C352.668 141.764 348.723 143.792 346.014 145.204C343.376 146.622 339.033 148.947 336.396 150.366C333.83 151.792 328.953 154.333 325.63 156.019C322.235 157.699 318.601 159.556 317.437 160.18C316.274 160.804 312.879 162.484 309.946 163.94C307.013 165.397 303.228 167.306 301.522 168.213C299.817 169.119 296.175 171.043 293.394 172.447C290.613 173.852 285.042 176.727 281.026 178.748C277.009 180.769 271.989 183.296 269.829 184.358C267.741 185.428 260.624 189.091 254.058 192.405C247.563 195.726 239.761 199.657 236.812 201.246C233.8 202.762 228.525 205.6 225.035 207.472C221.616 209.351 217.895 211.334 216.811 211.898C215.735 212.397 212.787 213.986 210.221 215.412C207.663 216.771 202.013 219.706 189.74 225.814L184.566 225.298C181.691 225.012 177.8 224.085 175.858 223.286C173.979 222.561 171.085 221.196 169.51 220.366C167.87 219.463 165.992 218.737 165.345 218.673C164.626 218.601 162.9 217.823 161.548 216.948C160.124 216.066 158.469 215.296 157.894 215.239C157.319 215.181 153.275 213.702 149.046 211.935C144.745 210.16 140.173 208.224 139.013 207.571C137.782 206.91 136.319 206.36 135.888 206.317C135.385 206.267 132.939 205.418 130.445 204.362C127.951 203.306 125.049 202.007 123.881 201.42C122.786 200.84 118.829 199.234 115.208 197.864C111.588 196.494 107.438 194.668 106.079 193.859C104.647 193.044 103.07 191.608 102.596 190.687C102.114 189.831 101.851 187.72 102.061 185.924C102.348 183.464 102.911 182.377 104.687 180.872C105.984 179.723 109.818 178.02 114.427 176.529C118.574 175.261 128.334 171.996 136.196 169.417C143.987 166.83 150.486 164.72 150.701 164.742C150.917 164.763 154.011 163.794 157.703 162.682C161.331 161.497 169.194 158.917 175.238 156.964C181.29 154.944 188.914 152.543 192.231 151.528C195.541 150.58 198.635 149.61 199.026 149.38C199.496 149.091 204.256 147.548 209.615 145.862C215.046 144.184 223.196 141.633 227.733 140.135C232.342 138.644 242.995 135.199 251.536 132.418C260.076 129.637 274.214 124.993 282.906 122.16C291.605 119.26 298.854 116.956 298.997 116.971C299.069 116.978 302.769 115.8 307.299 114.368C311.756 112.929 324.372 108.872 335.4 105.331C346.428 101.789 357.608 98.1951 360.32 97.3892C363.039 96.5168 373.086 93.2808 382.607 90.1942C392.2 87.1147 404.146 83.1935 409.289 81.4865C414.352 79.8389 418.658 78.452 418.874 78.4735C419.09 78.495 422.407 77.4805 426.259 76.2501C430.038 75.0126 438.491 72.3576 444.91 70.307C451.33 68.2564 462.438 64.6553 469.471 62.3296C476.576 60.011 485.044 57.223 488.369 56.1419C491.695 55.0609 499.701 52.4959 506.128 50.3788C512.555 48.2617 518.376 46.3532 518.99 46.0781C519.603 45.803 522.15 45.7878 524.665 46.0387ZM139.285 275.002C141.274 275.402 144.407 276.589 146.239 277.713C148.15 278.778 150.359 280.411 151.272 281.31C152.177 282.274 153.613 284.301 154.376 285.857C155.75 288.416 155.785 289.361 154.139 303.458L150.814 307.028C148.484 309.554 146.349 311.023 143.535 312.087C141.327 312.944 137.753 313.663 135.717 313.662C133.602 313.72 129.744 313.134 122.33 311.251L108.313 321.087C100.62 326.576 89.3592 334.601 72.3571 346.965L71.643 353.083C71.0919 357.804 70.4765 359.962 69.1345 362.116C68.1499 363.699 65.8194 366.225 63.9723 367.723C62.0535 369.213 59.1615 370.943 57.495 371.516C55.374 372.247 52.4372 372.492 47.9503 372.314C42.026 371.992 41.1073 371.766 37.3408 369.775C35.0856 368.542 32.2767 366.445 31.115 365.186C29.8892 363.853 28.3078 361.206 27.5112 359.31C26.2639 356.293 26.1317 354.935 26.7293 349.814C27.327 344.694 27.7697 343.393 29.7797 340.499C31.0032 338.738 33.1027 336.323 34.3923 335.241C35.6022 334.218 38.8458 332.591 41.4854 331.778C45.4885 330.495 47.1803 330.328 51.3409 330.81C54.1437 331.089 57.7779 331.721 62.7078 333.087L69.0006 329.006C72.4656 326.728 80.2946 321.32 86.4029 316.951C92.5111 312.582 99.7905 307.523 102.626 305.653C105.462 303.783 109.03 301.247 110.558 299.986C113.13 297.888 113.495 297.252 114.524 292.175C115.168 289.145 116.306 285.626 117.044 284.287C117.846 283.021 119.683 280.985 121.132 279.784C122.509 278.576 124.939 277.069 126.39 276.474C127.848 275.812 130.552 275.073 132.395 274.853C134.246 274.567 137.368 274.609 139.285 275.002ZM193.43 308.184L193.594 311.765C193.728 313.73 193.658 316.817 193.441 318.679C193.303 320.482 192.667 323.445 192.09 325.271C191.521 327.031 189.696 330.212 188.002 332.263C185.959 334.817 178.746 340.556 165.224 350.509C154.402 358.511 130.161 376.207 111.336 389.869C92.5816 403.538 73.3576 417.496 60.0186 427.131L59.182 432.429C58.6812 435.473 57.7104 438.807 56.8132 440.265C55.9238 441.656 54.1914 444.04 52.7756 445.58C51.4317 447.128 48.565 449.264 46.3333 450.319C42.2527 452.267 42.2527 452.267 33.9878 451.443C25.7948 450.626 25.7229 450.618 21.6903 447.795C19.4738 446.228 16.9271 443.754 16.0199 442.184C15.1048 440.68 14.0343 438.017 13.5815 436.29C13.2006 434.57 13.006 431.255 13.1417 428.847C13.4326 425.108 13.9395 423.881 16.402 420.225C18.4353 417.131 20.393 415.309 23.3646 413.52C26.1051 411.842 28.7602 410.896 31.4892 410.563C34.0744 410.215 37.3318 410.338 40.5348 410.927C43.3144 411.406 46.2144 412.098 47.1254 412.391C48.388 412.786 50.9692 411.227 61.6087 403.543C68.6802 398.396 80.1878 390.126 87.172 385.105C94.1562 380.083 111.325 367.534 125.317 357.292C139.316 346.983 155.052 335.502 160.292 331.72C165.532 327.937 171.409 323.68 173.392 322.263C175.368 320.913 180.68 317.137 185.195 313.955L193.43 308.184ZM247.149 383.636C249.816 383.835 252.628 384.653 255.251 385.857C257.386 386.877 260.146 388.767 261.387 389.967C262.549 391.226 264.169 393.54 264.861 395.089C265.552 396.638 266.407 399.28 266.716 400.992C267.018 402.771 266.884 405.785 266.404 408.024C265.933 410.197 265.096 413.006 264.517 414.227C264.01 415.454 261.831 417.928 259.658 419.729C257.079 421.894 254.426 423.445 251.642 424.244C248.628 425.154 246.353 425.331 243.199 424.949C240.827 424.713 237.624 424.124 236.066 423.767C233.31 423.089 233.159 423.141 225.322 428.615C220.965 431.679 216.704 434.55 215.78 434.996C214.855 435.442 208.683 439.737 189.713 453.385L188.57 460.065C187.646 465.489 186.982 467.441 184.972 470.334C183.638 472.421 181.331 474.747 179.689 475.727C178.048 476.707 175.465 477.661 173.989 477.85C172.433 478.098 170.695 478.665 170.058 479.139C169.261 479.733 167.498 479.893 164.91 479.635C162.682 479.413 160.781 478.887 160.604 478.533C160.435 478.112 158.867 477.216 157.061 476.498C155.262 475.713 152.879 474.332 151.758 473.345C150.701 472.433 148.904 469.765 147.795 467.434C145.994 463.555 145.864 462.802 146.436 457.275C146.977 452.015 147.325 450.906 149.391 448.152C150.615 446.391 152.763 444.183 154.037 443.234C155.319 442.218 158.02 440.873 160.069 440.136C163.402 438.988 164.647 438.911 179.812 440.423L184.877 436.892C187.72 434.956 193.797 430.853 198.513 427.825C203.157 424.79 209.704 420.398 213.033 418.039C216.362 415.68 219.827 413.403 220.831 412.897C221.835 412.392 222.606 411.393 222.723 410.395C222.832 409.464 222.715 407.973 222.392 406.999C222.085 405.892 222.308 403.358 223.048 400.135C224.032 396.063 224.889 394.332 227.369 391.148C229.658 388.35 231.498 386.919 234.104 385.766C236.089 384.955 238.88 384.09 240.364 383.834C241.784 383.505 244.841 383.473 247.149 383.636Z" fill="#FFAB00"/>
</g>
<defs>
<filter id="filter0_d_5_11" x="0.0986328" y="36.8606" width="545.621" height="459.893" filterUnits="userSpaceOnUse" color-interpolation-filters="sRGB">
<feFlood flood-opacity="0" result="BackgroundImageFix"/>
<feColorMatrix in="SourceAlpha" type="matrix" values="0 0 0 0 0 0 0 0 0 0 0 0 0 0 0 0 0 0 127 0" result="hardAlpha"/>
<feOffset dy="4"/>
<feGaussianBlur stdDeviation="6.5"/>
<feComposite in2="hardAlpha" operator="out"/>
<feColorMatrix type="matrix" values="0 0 0 0 0 0 0 0 0 0 0 0 0 0 0 0 0 0 0.25 0"/>
<feBlend mode="normal" in2="BackgroundImageFix" result="effect1_dropShadow_5_11"/>
<feBlend mode="normal" in="SourceGraphic" in2="effect1_dropShadow_5_11" result="shape"/>
</filter>
</defs>
</svg>
