<svg width="320" height="100" viewBox="0 0 320 100" fill="none" xmlns="http://www.w3.org/2000/svg">
<path
        d="M0.875 0.3125H20.6875V80.625H77.5V98H0.875V0.3125ZM76.5175 24.1875H94.955V60.1875C94.955 63.6042 95.33 66.7292 96.08 69.5625C96.83 72.3542 98.1008 74.75 99.8925 76.75C101.726 78.75 104.143 80.3125 107.143 81.4375C110.184 82.5208 113.955 83.0625 118.455 83.0625C120.58 83.0625 122.726 82.8333 124.893 82.375C127.101 81.9167 129.205 81.2917 131.205 80.5C133.205 79.6667 135.059 78.6875 136.768 77.5625C138.518 76.4375 140.018 75.2083 141.268 73.875V24.1875H159.768V98H141.268V91.6875C136.726 94.3958 132.163 96.3333 127.58 97.5C122.997 98.6667 118.643 99.25 114.518 99.25C107.768 99.25 101.976 98.4375 97.1425 96.8125C92.3508 95.1875 88.4133 92.8333 85.33 89.75C82.2883 86.625 80.0592 82.8125 78.6425 78.3125C77.2258 73.7708 76.5175 68.6042 76.5175 62.8125V24.1875ZM184.473 61.125L153.973 24.1875H177.598L196.098 46.6875L213.66 24.1875H236.723L208.035 61.0625L238.535 98H214.91L195.848 74.9375L178.16 98H155.098L184.473 61.125ZM228.928 60.875C228.928 55.875 229.948 51.1042 231.99 46.5625C234.032 41.9792 236.969 37.9375 240.803 34.4375C244.636 30.9375 249.323 28.1458 254.865 26.0625C260.448 23.9792 266.782 22.9375 273.865 22.9375C280.907 22.9375 287.24 24 292.865 26.125C298.532 28.2083 303.323 31.0833 307.24 34.75C311.198 38.4167 314.219 42.7292 316.303 47.6875C318.428 52.6458 319.49 57.9583 319.49 63.625C319.49 64.3333 319.469 65.1042 319.428 65.9375C319.428 66.7292 319.386 67.4583 319.303 68.125H249.553C250.344 70.3333 251.615 72.3542 253.365 74.1875C255.157 76.0208 257.386 77.6042 260.053 78.9375C262.719 80.2708 265.803 81.3125 269.303 82.0625C272.803 82.7708 276.678 83.125 280.928 83.125C285.178 83.125 289.407 82.6875 293.615 81.8125C297.823 80.8958 301.844 79.75 305.678 78.375L311.928 92.5C309.511 93.625 307.053 94.625 304.553 95.5C302.094 96.3333 299.511 97.0417 296.803 97.625C294.136 98.1667 291.323 98.5833 288.365 98.875C285.448 99.1667 282.365 99.3125 279.115 99.3125C270.823 99.3125 263.553 98.3125 257.303 96.3125C251.053 94.3125 245.823 91.5833 241.615 88.125C237.407 84.6667 234.24 80.6042 232.115 75.9375C229.99 71.2708 228.928 66.25 228.928 60.875ZM299.865 53.6875C299.198 51.6458 298.157 49.75 296.74 48C295.365 46.2083 293.636 44.6667 291.553 43.375C289.469 42.0417 287.053 41 284.303 40.25C281.553 39.5 278.532 39.125 275.24 39.125C271.74 39.125 268.553 39.5208 265.678 40.3125C262.803 41.1042 260.282 42.1667 258.115 43.5C255.948 44.8333 254.136 46.375 252.678 48.125C251.261 49.875 250.219 51.7292 249.553 53.6875H299.865Z"
        fill="#432DD7" />
</svg>
